<svg width="160" height="8" viewBox="0 0 160 8" fill="none" xmlns="http://www.w3.org/2000/svg">
<path d="M4.04688 5.44922C4.04688 5.95703 3.86328 6.35547 3.49609 6.64453C3.12891 6.93359 2.6224 7.07812 1.97656 7.07812C1.33073 7.07812 0.802083 6.97786 0.390625 6.77734V5.89453C0.651042 6.01693 0.927083 6.11328 1.21875 6.18359C1.51302 6.25391 1.78646 6.28906 2.03906 6.28906C2.40885 6.28906 2.68099 6.21875 2.85547 6.07812C3.03255 5.9375 3.12109 5.7487 3.12109 5.51172C3.12109 5.29818 3.04036 5.11719 2.87891 4.96875C2.71745 4.82031 2.38411 4.64453 1.87891 4.44141C1.35807 4.23047 0.990885 3.98958 0.777344 3.71875C0.563802 3.44792 0.457031 3.1224 0.457031 2.74219C0.457031 2.26562 0.626302 1.89062 0.964844 1.61719C1.30339 1.34375 1.75781 1.20703 2.32812 1.20703C2.875 1.20703 3.41927 1.32682 3.96094 1.56641L3.66406 2.32812C3.15625 2.11458 2.70312 2.00781 2.30469 2.00781C2.0026 2.00781 1.77344 2.07422 1.61719 2.20703C1.46094 2.33724 1.38281 2.51042 1.38281 2.72656C1.38281 2.875 1.41406 3.0026 1.47656 3.10938C1.53906 3.21354 1.64193 3.3125 1.78516 3.40625C1.92839 3.5 2.1862 3.6237 2.55859 3.77734C2.97786 3.95182 3.28516 4.11458 3.48047 4.26562C3.67578 4.41667 3.81901 4.58724 3.91016 4.77734C4.0013 4.96745 4.04688 5.19141 4.04688 5.44922ZM8.10156 7L7.97266 6.43359H7.92578C7.79818 6.63411 7.61589 6.79167 7.37891 6.90625C7.14453 7.02083 6.8763 7.07812 6.57422 7.07812C6.05078 7.07812 5.66016 6.94792 5.40234 6.6875C5.14453 6.42708 5.01562 6.03255 5.01562 5.50391V2.67969H5.94141V5.34375C5.94141 5.67448 6.00911 5.92318 6.14453 6.08984C6.27995 6.25391 6.49219 6.33594 6.78125 6.33594C7.16667 6.33594 7.44922 6.22135 7.62891 5.99219C7.8112 5.76042 7.90234 5.3737 7.90234 4.83203V2.67969H8.82422V7H8.10156ZM12.3398 2.60156C12.8789 2.60156 13.2982 2.79688 13.5977 3.1875C13.8997 3.57812 14.0508 4.1263 14.0508 4.83203C14.0508 5.54036 13.8984 6.09245 13.5938 6.48828C13.2891 6.88151 12.8659 7.07812 12.3242 7.07812C11.7773 7.07812 11.3529 6.88151 11.0508 6.48828H10.9883L10.8203 7H10.1328V0.921875H11.0508V2.36719C11.0508 2.47396 11.0456 2.63281 11.0352 2.84375C11.0247 3.05469 11.0169 3.1888 11.0117 3.24609H11.0508C11.3424 2.81641 11.7721 2.60156 12.3398 2.60156ZM12.1016 3.35156C11.7318 3.35156 11.4648 3.46094 11.3008 3.67969C11.1393 3.89583 11.056 4.25911 11.0508 4.76953V4.83203C11.0508 5.35807 11.1341 5.73958 11.3008 5.97656C11.4674 6.21094 11.7396 6.32812 12.1172 6.32812C12.4427 6.32812 12.6888 6.19922 12.8555 5.94141C13.0247 5.68359 13.1094 5.3112 13.1094 4.82422C13.1094 3.84245 12.7734 3.35156 12.1016 3.35156ZM16.7266 6.33594C16.9505 6.33594 17.1745 6.30078 17.3984 6.23047V6.92188C17.2969 6.96615 17.1654 7.0026 17.0039 7.03125C16.8451 7.0625 16.6797 7.07812 16.5078 7.07812C15.638 7.07812 15.2031 6.61979 15.2031 5.70312V3.375H14.6133V2.96875L15.2461 2.63281L15.5586 1.71875H16.125V2.67969H17.3555V3.375H16.125V5.6875C16.125 5.90885 16.1797 6.07292 16.2891 6.17969C16.401 6.28385 16.5469 6.33594 16.7266 6.33594ZM19.1836 7H18.2656V2.67969H19.1836V7ZM18.2109 1.53516C18.2109 1.37109 18.2552 1.24479 18.3438 1.15625C18.4349 1.06771 18.5638 1.02344 18.7305 1.02344C18.8919 1.02344 19.0169 1.06771 19.1055 1.15625C19.1966 1.24479 19.2422 1.37109 19.2422 1.53516C19.2422 1.69141 19.1966 1.8151 19.1055 1.90625C19.0169 1.99479 18.8919 2.03906 18.7305 2.03906C18.5638 2.03906 18.4349 1.99479 18.3438 1.90625C18.2552 1.8151 18.2109 1.69141 18.2109 1.53516ZM22.1094 6.33594C22.3333 6.33594 22.5573 6.30078 22.7812 6.23047V6.92188C22.6797 6.96615 22.5482 7.0026 22.3867 7.03125C22.2279 7.0625 22.0625 7.07812 21.8906 7.07812C21.0208 7.07812 20.5859 6.61979 20.5859 5.70312V3.375H19.9961V2.96875L20.6289 2.63281L20.9414 1.71875H21.5078V2.67969H22.7383V3.375H21.5078V5.6875C21.5078 5.90885 21.5625 6.07292 21.6719 6.17969C21.7839 6.28385 21.9297 6.33594 22.1094 6.33594ZM25.8398 2.60156C26.0247 2.60156 26.1771 2.61458 26.2969 2.64062L26.207 3.49609C26.0768 3.46484 25.9414 3.44922 25.8008 3.44922C25.4336 3.44922 25.1354 3.56901 24.9062 3.80859C24.6797 4.04818 24.5664 4.35938 24.5664 4.74219V7H23.6484V2.67969H24.3672L24.4883 3.44141H24.5352C24.6784 3.18359 24.8646 2.97917 25.0938 2.82812C25.3255 2.67708 25.5742 2.60156 25.8398 2.60156ZM29.8047 7L29.6211 6.39844H29.5898C29.3815 6.66146 29.1719 6.84115 28.9609 6.9375C28.75 7.03125 28.4792 7.07812 28.1484 7.07812C27.724 7.07812 27.3919 6.96354 27.1523 6.73438C26.9154 6.50521 26.7969 6.18099 26.7969 5.76172C26.7969 5.31641 26.9622 4.98047 27.293 4.75391C27.6237 4.52734 28.1276 4.40365 28.8047 4.38281L29.5508 4.35938V4.12891C29.5508 3.85286 29.4857 3.64714 29.3555 3.51172C29.2279 3.3737 29.0286 3.30469 28.7578 3.30469C28.5365 3.30469 28.3242 3.33724 28.1211 3.40234C27.918 3.46745 27.7227 3.54427 27.5352 3.63281L27.2383 2.97656C27.4727 2.85417 27.7292 2.76172 28.0078 2.69922C28.2865 2.63411 28.5495 2.60156 28.7969 2.60156C29.3464 2.60156 29.7604 2.72135 30.0391 2.96094C30.3203 3.20052 30.4609 3.57682 30.4609 4.08984V7H29.8047ZM28.4375 6.375C28.7708 6.375 29.0378 6.28255 29.2383 6.09766C29.4414 5.91016 29.543 5.64844 29.543 5.3125V4.9375L28.9883 4.96094C28.556 4.97656 28.2409 5.04948 28.043 5.17969C27.8477 5.30729 27.75 5.50391 27.75 5.76953C27.75 5.96224 27.8073 6.11198 27.9219 6.21875C28.0365 6.32292 28.2083 6.375 28.4375 6.375ZM33.9336 2.60156C34.1185 2.60156 34.2708 2.61458 34.3906 2.64062L34.3008 3.49609C34.1706 3.46484 34.0352 3.44922 33.8945 3.44922C33.5273 3.44922 33.2292 3.56901 33 3.80859C32.7734 4.04818 32.6602 4.35938 32.6602 4.74219V7H31.7422V2.67969H32.4609L32.582 3.44141H32.6289C32.7721 3.18359 32.9583 2.97917 33.1875 2.82812C33.4193 2.67708 33.668 2.60156 33.9336 2.60156ZM36.1133 7H35.1953V2.67969H36.1133V7ZM35.1406 1.53516C35.1406 1.37109 35.1849 1.24479 35.2734 1.15625C35.3646 1.06771 35.4935 1.02344 35.6602 1.02344C35.8216 1.02344 35.9466 1.06771 36.0352 1.15625C36.1263 1.24479 36.1719 1.37109 36.1719 1.53516C36.1719 1.69141 36.1263 1.8151 36.0352 1.90625C35.9466 1.99479 35.8216 2.03906 35.6602 2.03906C35.4935 2.03906 35.3646 1.99479 35.2734 1.90625C35.1849 1.8151 35.1406 1.69141 35.1406 1.53516ZM41.6758 3.375H40.6211V7H39.6992V3.375H38.9883V2.94531L39.6992 2.66406V2.38281C39.6992 1.8724 39.819 1.49479 40.0586 1.25C40.2982 1.0026 40.6641 0.878906 41.1562 0.878906C41.4792 0.878906 41.7969 0.932292 42.1094 1.03906L41.8672 1.73438C41.6406 1.66146 41.4245 1.625 41.2188 1.625C41.0104 1.625 40.8581 1.6901 40.7617 1.82031C40.668 1.94792 40.6211 2.14062 40.6211 2.39844V2.67969H41.6758V3.375ZM43.3281 7H42.4102V2.67969H43.3281V7ZM42.3555 1.53516C42.3555 1.37109 42.3997 1.24479 42.4883 1.15625C42.5794 1.06771 42.7083 1.02344 42.875 1.02344C43.0365 1.02344 43.1615 1.06771 43.25 1.15625C43.3411 1.24479 43.3867 1.37109 43.3867 1.53516C43.3867 1.69141 43.3411 1.8151 43.25 1.90625C43.1615 1.99479 43.0365 2.03906 42.875 2.03906C42.7083 2.03906 42.5794 1.99479 42.4883 1.90625C42.3997 1.8151 42.3555 1.69141 42.3555 1.53516ZM45.5664 7H44.6484V0.921875H45.5664V7ZM50.5234 7H49.6016V4.33594C49.6016 4.00521 49.5391 3.75911 49.4141 3.59766C49.2891 3.43359 49.0938 3.35156 48.8281 3.35156C48.474 3.35156 48.2135 3.46745 48.0469 3.69922C47.8828 3.92839 47.8008 4.3112 47.8008 4.84766V7H46.8828V2.67969H47.6016L47.7305 3.24609H47.7773C47.8971 3.04036 48.0703 2.88151 48.2969 2.76953C48.526 2.65755 48.7773 2.60156 49.0508 2.60156C49.7148 2.60156 50.1549 2.82812 50.3711 3.28125H50.4336C50.5612 3.06771 50.7409 2.90104 50.9727 2.78125C51.2044 2.66146 51.4701 2.60156 51.7695 2.60156C52.2852 2.60156 52.6602 2.73177 52.8945 2.99219C53.1315 3.2526 53.25 3.64974 53.25 4.18359V7H52.332V4.33594C52.332 4.00521 52.2682 3.75911 52.1406 3.59766C52.0156 3.43359 51.8203 3.35156 51.5547 3.35156C51.1979 3.35156 50.9362 3.46354 50.7695 3.6875C50.6055 3.90885 50.5234 4.25 50.5234 4.71094V7ZM56.418 7.07812C55.7461 7.07812 55.2201 6.88281 54.8398 6.49219C54.4622 6.09896 54.2734 5.55859 54.2734 4.87109C54.2734 4.16536 54.4492 3.61068 54.8008 3.20703C55.1523 2.80339 55.6354 2.60156 56.25 2.60156C56.8203 2.60156 57.2708 2.77474 57.6016 3.12109C57.9323 3.46745 58.0977 3.94401 58.0977 4.55078V5.04688H55.2188C55.2318 5.46615 55.3451 5.78906 55.5586 6.01562C55.7721 6.23958 56.0729 6.35156 56.4609 6.35156C56.7161 6.35156 56.9531 6.32812 57.1719 6.28125C57.3932 6.23177 57.6302 6.15104 57.8828 6.03906V6.78516C57.6589 6.89193 57.4323 6.96745 57.2031 7.01172C56.974 7.05599 56.7122 7.07812 56.418 7.07812ZM56.25 3.29688C55.9583 3.29688 55.724 3.38932 55.5469 3.57422C55.3724 3.75911 55.2682 4.02865 55.2344 4.38281H57.1953C57.1901 4.02604 57.1042 3.75651 56.9375 3.57422C56.7708 3.38932 56.5417 3.29688 56.25 3.29688ZM64.1211 5.76953C64.1211 6.19141 63.9674 6.51562 63.6602 6.74219C63.3529 6.96615 62.9128 7.07812 62.3398 7.07812C61.7643 7.07812 61.3021 6.99089 60.9531 6.81641V6.02344C61.4609 6.25781 61.9336 6.375 62.3711 6.375C62.9362 6.375 63.2188 6.20443 63.2188 5.86328C63.2188 5.75391 63.1875 5.66276 63.125 5.58984C63.0625 5.51693 62.9596 5.44141 62.8164 5.36328C62.6732 5.28516 62.474 5.19661 62.2188 5.09766C61.7214 4.90495 61.3841 4.71224 61.207 4.51953C61.0326 4.32682 60.9453 4.07682 60.9453 3.76953C60.9453 3.39974 61.0938 3.11328 61.3906 2.91016C61.6901 2.70443 62.0964 2.60156 62.6094 2.60156C63.1172 2.60156 63.5977 2.70443 64.0508 2.91016L63.7539 3.60156C63.2878 3.40885 62.8958 3.3125 62.5781 3.3125C62.0938 3.3125 61.8516 3.45052 61.8516 3.72656C61.8516 3.86198 61.9141 3.97656 62.0391 4.07031C62.1667 4.16406 62.4427 4.29297 62.8672 4.45703C63.224 4.59505 63.4831 4.72135 63.6445 4.83594C63.806 4.95052 63.9258 5.08333 64.0039 5.23438C64.082 5.38281 64.1211 5.5612 64.1211 5.76953ZM66.0352 7H65.1172V2.67969H66.0352V7ZM65.0625 1.53516C65.0625 1.37109 65.1068 1.24479 65.1953 1.15625C65.2865 1.06771 65.4154 1.02344 65.582 1.02344C65.7435 1.02344 65.8685 1.06771 65.957 1.15625C66.0482 1.24479 66.0938 1.37109 66.0938 1.53516C66.0938 1.69141 66.0482 1.8151 65.957 1.90625C65.8685 1.99479 65.7435 2.03906 65.582 2.03906C65.4154 2.03906 65.2865 1.99479 65.1953 1.90625C65.1068 1.8151 65.0625 1.69141 65.0625 1.53516ZM72.332 5.76953C72.332 6.19141 72.1784 6.51562 71.8711 6.74219C71.5638 6.96615 71.1237 7.07812 70.5508 7.07812C69.9753 7.07812 69.513 6.99089 69.1641 6.81641V6.02344C69.6719 6.25781 70.1445 6.375 70.582 6.375C71.1471 6.375 71.4297 6.20443 71.4297 5.86328C71.4297 5.75391 71.3984 5.66276 71.3359 5.58984C71.2734 5.51693 71.1706 5.44141 71.0273 5.36328C70.8841 5.28516 70.6849 5.19661 70.4297 5.09766C69.9323 4.90495 69.5951 4.71224 69.418 4.51953C69.2435 4.32682 69.1562 4.07682 69.1562 3.76953C69.1562 3.39974 69.3047 3.11328 69.6016 2.91016C69.901 2.70443 70.3073 2.60156 70.8203 2.60156C71.3281 2.60156 71.8086 2.70443 72.2617 2.91016L71.9648 3.60156C71.4987 3.40885 71.1068 3.3125 70.7891 3.3125C70.3047 3.3125 70.0625 3.45052 70.0625 3.72656C70.0625 3.86198 70.125 3.97656 70.25 4.07031C70.3776 4.16406 70.6536 4.29297 71.0781 4.45703C71.4349 4.59505 71.694 4.72135 71.8555 4.83594C72.0169 4.95052 72.1367 5.08333 72.2148 5.23438C72.293 5.38281 72.332 5.5612 72.332 5.76953ZM75.2148 7.07812C74.543 7.07812 74.0169 6.88281 73.6367 6.49219C73.2591 6.09896 73.0703 5.55859 73.0703 4.87109C73.0703 4.16536 73.2461 3.61068 73.5977 3.20703C73.9492 2.80339 74.4323 2.60156 75.0469 2.60156C75.6172 2.60156 76.0677 2.77474 76.3984 3.12109C76.7292 3.46745 76.8945 3.94401 76.8945 4.55078V5.04688H74.0156C74.0286 5.46615 74.1419 5.78906 74.3555 6.01562C74.569 6.23958 74.8698 6.35156 75.2578 6.35156C75.513 6.35156 75.75 6.32812 75.9688 6.28125C76.1901 6.23177 76.4271 6.15104 76.6797 6.03906V6.78516C76.4557 6.89193 76.2292 6.96745 76 7.01172C75.7708 7.05599 75.5091 7.07812 75.2148 7.07812ZM75.0469 3.29688C74.7552 3.29688 74.5208 3.38932 74.3438 3.57422C74.1693 3.75911 74.0651 4.02865 74.0312 4.38281H75.9922C75.987 4.02604 75.901 3.75651 75.7344 3.57422C75.5677 3.38932 75.3385 3.29688 75.0469 3.29688ZM80.1289 2.60156C80.3138 2.60156 80.4661 2.61458 80.5859 2.64062L80.4961 3.49609C80.3659 3.46484 80.2305 3.44922 80.0898 3.44922C79.7227 3.44922 79.4245 3.56901 79.1953 3.80859C78.9688 4.04818 78.8555 4.35938 78.8555 4.74219V7H77.9375V2.67969H78.6562L78.7773 3.44141H78.8242C78.9674 3.18359 79.1536 2.97917 79.3828 2.82812C79.6146 2.67708 79.8633 2.60156 80.1289 2.60156ZM82.3086 7H81.3906V2.67969H82.3086V7ZM81.3359 1.53516C81.3359 1.37109 81.3802 1.24479 81.4688 1.15625C81.5599 1.06771 81.6888 1.02344 81.8555 1.02344C82.0169 1.02344 82.1419 1.06771 82.2305 1.15625C82.3216 1.24479 82.3672 1.37109 82.3672 1.53516C82.3672 1.69141 82.3216 1.8151 82.2305 1.90625C82.1419 1.99479 82.0169 2.03906 81.8555 2.03906C81.6888 2.03906 81.5599 1.99479 81.4688 1.90625C81.3802 1.8151 81.3359 1.69141 81.3359 1.53516ZM86.3281 7L86.1445 6.39844H86.1133C85.9049 6.66146 85.6953 6.84115 85.4844 6.9375C85.2734 7.03125 85.0026 7.07812 84.6719 7.07812C84.2474 7.07812 83.9154 6.96354 83.6758 6.73438C83.4388 6.50521 83.3203 6.18099 83.3203 5.76172C83.3203 5.31641 83.4857 4.98047 83.8164 4.75391C84.1471 4.52734 84.651 4.40365 85.3281 4.38281L86.0742 4.35938V4.12891C86.0742 3.85286 86.0091 3.64714 85.8789 3.51172C85.7513 3.3737 85.5521 3.30469 85.2812 3.30469C85.0599 3.30469 84.8477 3.33724 84.6445 3.40234C84.4414 3.46745 84.2461 3.54427 84.0586 3.63281L83.7617 2.97656C83.9961 2.85417 84.2526 2.76172 84.5312 2.69922C84.8099 2.63411 85.0729 2.60156 85.3203 2.60156C85.8698 2.60156 86.2839 2.72135 86.5625 2.96094C86.8438 3.20052 86.9844 3.57682 86.9844 4.08984V7H86.3281ZM84.9609 6.375C85.2943 6.375 85.5612 6.28255 85.7617 6.09766C85.9648 5.91016 86.0664 5.64844 86.0664 5.3125V4.9375L85.5117 4.96094C85.0794 4.97656 84.7643 5.04948 84.5664 5.17969C84.3711 5.30729 84.2734 5.50391 84.2734 5.76953C84.2734 5.96224 84.3307 6.11198 84.4453 6.21875C84.5599 6.32292 84.7318 6.375 84.9609 6.375ZM89.1836 7H88.2656V0.921875H89.1836V7ZM92.3867 7.07812C91.7148 7.07812 91.1888 6.88281 90.8086 6.49219C90.431 6.09896 90.2422 5.55859 90.2422 4.87109C90.2422 4.16536 90.418 3.61068 90.7695 3.20703C91.1211 2.80339 91.6042 2.60156 92.2188 2.60156C92.7891 2.60156 93.2396 2.77474 93.5703 3.12109C93.901 3.46745 94.0664 3.94401 94.0664 4.55078V5.04688H91.1875C91.2005 5.46615 91.3138 5.78906 91.5273 6.01562C91.7409 6.23958 92.0417 6.35156 92.4297 6.35156C92.6849 6.35156 92.9219 6.32812 93.1406 6.28125C93.362 6.23177 93.599 6.15104 93.8516 6.03906V6.78516C93.6276 6.89193 93.401 6.96745 93.1719 7.01172C92.9427 7.05599 92.681 7.07812 92.3867 7.07812ZM92.2188 3.29688C91.9271 3.29688 91.6927 3.38932 91.5156 3.57422C91.3411 3.75911 91.237 4.02865 91.2031 4.38281H93.1641C93.1589 4.02604 93.0729 3.75651 92.9062 3.57422C92.7396 3.38932 92.5104 3.29688 92.2188 3.29688ZM98.1055 7H97.1875V2.67969H98.1055V7ZM97.1328 1.53516C97.1328 1.37109 97.1771 1.24479 97.2656 1.15625C97.3568 1.06771 97.4857 1.02344 97.6523 1.02344C97.8138 1.02344 97.9388 1.06771 98.0273 1.15625C98.1185 1.24479 98.1641 1.37109 98.1641 1.53516C98.1641 1.69141 98.1185 1.8151 98.0273 1.90625C97.9388 1.99479 97.8138 2.03906 97.6523 2.03906C97.4857 2.03906 97.3568 1.99479 97.2656 1.90625C97.1771 1.8151 97.1328 1.69141 97.1328 1.53516ZM103.223 7H102.301V4.34375C102.301 4.01042 102.233 3.76172 102.098 3.59766C101.965 3.43359 101.753 3.35156 101.461 3.35156C101.073 3.35156 100.789 3.46615 100.609 3.69531C100.43 3.92448 100.34 4.30859 100.34 4.84766V7H99.4219V2.67969H100.141L100.27 3.24609H100.316C100.447 3.04036 100.632 2.88151 100.871 2.76953C101.111 2.65755 101.376 2.60156 101.668 2.60156C102.704 2.60156 103.223 3.12891 103.223 4.18359V7ZM107.496 7H106.578V0.921875H107.496V7ZM109.73 7H108.812V2.67969H109.73V7ZM108.758 1.53516C108.758 1.37109 108.802 1.24479 108.891 1.15625C108.982 1.06771 109.111 1.02344 109.277 1.02344C109.439 1.02344 109.564 1.06771 109.652 1.15625C109.743 1.24479 109.789 1.37109 109.789 1.53516C109.789 1.69141 109.743 1.8151 109.652 1.90625C109.564 1.99479 109.439 2.03906 109.277 2.03906C109.111 2.03906 108.982 1.99479 108.891 1.90625C108.802 1.8151 108.758 1.69141 108.758 1.53516ZM114.688 7H113.766V4.33594C113.766 4.00521 113.703 3.75911 113.578 3.59766C113.453 3.43359 113.258 3.35156 112.992 3.35156C112.638 3.35156 112.378 3.46745 112.211 3.69922C112.047 3.92839 111.965 4.3112 111.965 4.84766V7H111.047V2.67969H111.766L111.895 3.24609H111.941C112.061 3.04036 112.234 2.88151 112.461 2.76953C112.69 2.65755 112.941 2.60156 113.215 2.60156C113.879 2.60156 114.319 2.82812 114.535 3.28125H114.598C114.725 3.06771 114.905 2.90104 115.137 2.78125C115.368 2.66146 115.634 2.60156 115.934 2.60156C116.449 2.60156 116.824 2.73177 117.059 2.99219C117.296 3.2526 117.414 3.64974 117.414 4.18359V7H116.496V4.33594C116.496 4.00521 116.432 3.75911 116.305 3.59766C116.18 3.43359 115.984 3.35156 115.719 3.35156C115.362 3.35156 115.1 3.46354 114.934 3.6875C114.77 3.90885 114.688 4.25 114.688 4.71094V7ZM120.902 2.60156C121.441 2.60156 121.861 2.79688 122.16 3.1875C122.462 3.57812 122.613 4.1263 122.613 4.83203C122.613 5.54036 122.461 6.09245 122.156 6.48828C121.852 6.88151 121.428 7.07812 120.887 7.07812C120.34 7.07812 119.915 6.88151 119.613 6.48828H119.551L119.383 7H118.695V0.921875H119.613V2.36719C119.613 2.47396 119.608 2.63281 119.598 2.84375C119.587 3.05469 119.579 3.1888 119.574 3.24609H119.613C119.905 2.81641 120.335 2.60156 120.902 2.60156ZM120.664 3.35156C120.294 3.35156 120.027 3.46094 119.863 3.67969C119.702 3.89583 119.618 4.25911 119.613 4.76953V4.83203C119.613 5.35807 119.697 5.73958 119.863 5.97656C120.03 6.21094 120.302 6.32812 120.68 6.32812C121.005 6.32812 121.251 6.19922 121.418 5.94141C121.587 5.68359 121.672 5.3112 121.672 4.82422C121.672 3.84245 121.336 3.35156 120.664 3.35156ZM126.383 7L126.199 6.39844H126.168C125.96 6.66146 125.75 6.84115 125.539 6.9375C125.328 7.03125 125.057 7.07812 124.727 7.07812C124.302 7.07812 123.97 6.96354 123.73 6.73438C123.493 6.50521 123.375 6.18099 123.375 5.76172C123.375 5.31641 123.54 4.98047 123.871 4.75391C124.202 4.52734 124.706 4.40365 125.383 4.38281L126.129 4.35938V4.12891C126.129 3.85286 126.064 3.64714 125.934 3.51172C125.806 3.3737 125.607 3.30469 125.336 3.30469C125.115 3.30469 124.902 3.33724 124.699 3.40234C124.496 3.46745 124.301 3.54427 124.113 3.63281L123.816 2.97656C124.051 2.85417 124.307 2.76172 124.586 2.69922C124.865 2.63411 125.128 2.60156 125.375 2.60156C125.924 2.60156 126.339 2.72135 126.617 2.96094C126.898 3.20052 127.039 3.57682 127.039 4.08984V7H126.383ZM125.016 6.375C125.349 6.375 125.616 6.28255 125.816 6.09766C126.02 5.91016 126.121 5.64844 126.121 5.3125V4.9375L125.566 4.96094C125.134 4.97656 124.819 5.04948 124.621 5.17969C124.426 5.30729 124.328 5.50391 124.328 5.76953C124.328 5.96224 124.385 6.11198 124.5 6.21875C124.615 6.32292 124.786 6.375 125.016 6.375ZM132.59 2.60156C132.775 2.60156 132.927 2.61458 133.047 2.64062L132.957 3.49609C132.827 3.46484 132.691 3.44922 132.551 3.44922C132.184 3.44922 131.885 3.56901 131.656 3.80859C131.43 4.04818 131.316 4.35938 131.316 4.74219V7H130.398V2.67969H131.117L131.238 3.44141H131.285C131.428 3.18359 131.615 2.97917 131.844 2.82812C132.076 2.67708 132.324 2.60156 132.59 2.60156ZM137.684 4.83203C137.684 5.53776 137.503 6.08854 137.141 6.48438C136.779 6.88021 136.275 7.07812 135.629 7.07812C135.225 7.07812 134.868 6.98698 134.559 6.80469C134.249 6.6224 134.01 6.36068 133.844 6.01953C133.677 5.67839 133.594 5.28255 133.594 4.83203C133.594 4.13151 133.773 3.58464 134.133 3.19141C134.492 2.79818 134.999 2.60156 135.652 2.60156C136.277 2.60156 136.772 2.80339 137.137 3.20703C137.501 3.60807 137.684 4.14974 137.684 4.83203ZM134.539 4.83203C134.539 5.82943 134.908 6.32812 135.645 6.32812C136.374 6.32812 136.738 5.82943 136.738 4.83203C136.738 3.84505 136.371 3.35156 135.637 3.35156C135.251 3.35156 134.971 3.47917 134.797 3.73438C134.625 3.98958 134.539 4.35547 134.539 4.83203ZM142.383 7H141.461V4.33594C141.461 4.00521 141.398 3.75911 141.273 3.59766C141.148 3.43359 140.953 3.35156 140.688 3.35156C140.333 3.35156 140.073 3.46745 139.906 3.69922C139.742 3.92839 139.66 4.3112 139.66 4.84766V7H138.742V2.67969H139.461L139.59 3.24609H139.637C139.757 3.04036 139.93 2.88151 140.156 2.76953C140.385 2.65755 140.637 2.60156 140.91 2.60156C141.574 2.60156 142.014 2.82812 142.23 3.28125H142.293C142.421 3.06771 142.6 2.90104 142.832 2.78125C143.064 2.66146 143.329 2.60156 143.629 2.60156C144.145 2.60156 144.52 2.73177 144.754 2.99219C144.991 3.2526 145.109 3.64974 145.109 4.18359V7H144.191V4.33594C144.191 4.00521 144.128 3.75911 144 3.59766C143.875 3.43359 143.68 3.35156 143.414 3.35156C143.057 3.35156 142.796 3.46354 142.629 3.6875C142.465 3.90885 142.383 4.25 142.383 4.71094V7ZM149.094 7L148.91 6.39844H148.879C148.671 6.66146 148.461 6.84115 148.25 6.9375C148.039 7.03125 147.768 7.07812 147.438 7.07812C147.013 7.07812 146.681 6.96354 146.441 6.73438C146.204 6.50521 146.086 6.18099 146.086 5.76172C146.086 5.31641 146.251 4.98047 146.582 4.75391C146.913 4.52734 147.417 4.40365 148.094 4.38281L148.84 4.35938V4.12891C148.84 3.85286 148.775 3.64714 148.645 3.51172C148.517 3.3737 148.318 3.30469 148.047 3.30469C147.826 3.30469 147.613 3.33724 147.41 3.40234C147.207 3.46745 147.012 3.54427 146.824 3.63281L146.527 2.97656C146.762 2.85417 147.018 2.76172 147.297 2.69922C147.576 2.63411 147.839 2.60156 148.086 2.60156C148.635 2.60156 149.049 2.72135 149.328 2.96094C149.609 3.20052 149.75 3.57682 149.75 4.08984V7H149.094ZM147.727 6.375C148.06 6.375 148.327 6.28255 148.527 6.09766C148.73 5.91016 148.832 5.64844 148.832 5.3125V4.9375L148.277 4.96094C147.845 4.97656 147.53 5.04948 147.332 5.17969C147.137 5.30729 147.039 5.50391 147.039 5.76953C147.039 5.96224 147.096 6.11198 147.211 6.21875C147.326 6.32292 147.497 6.375 147.727 6.375ZM154.832 7H153.91V4.34375C153.91 4.01042 153.842 3.76172 153.707 3.59766C153.574 3.43359 153.362 3.35156 153.07 3.35156C152.682 3.35156 152.398 3.46615 152.219 3.69531C152.039 3.92448 151.949 4.30859 151.949 4.84766V7H151.031V2.67969H151.75L151.879 3.24609H151.926C152.056 3.04036 152.241 2.88151 152.48 2.76953C152.72 2.65755 152.986 2.60156 153.277 2.60156C154.314 2.60156 154.832 3.12891 154.832 4.18359V7ZM158.812 7L158.629 6.39844H158.598C158.389 6.66146 158.18 6.84115 157.969 6.9375C157.758 7.03125 157.487 7.07812 157.156 7.07812C156.732 7.07812 156.4 6.96354 156.16 6.73438C155.923 6.50521 155.805 6.18099 155.805 5.76172C155.805 5.31641 155.97 4.98047 156.301 4.75391C156.632 4.52734 157.135 4.40365 157.812 4.38281L158.559 4.35938V4.12891C158.559 3.85286 158.493 3.64714 158.363 3.51172C158.236 3.3737 158.036 3.30469 157.766 3.30469C157.544 3.30469 157.332 3.33724 157.129 3.40234C156.926 3.46745 156.73 3.54427 156.543 3.63281L156.246 2.97656C156.48 2.85417 156.737 2.76172 157.016 2.69922C157.294 2.63411 157.557 2.60156 157.805 2.60156C158.354 2.60156 158.768 2.72135 159.047 2.96094C159.328 3.20052 159.469 3.57682 159.469 4.08984V7H158.812ZM157.445 6.375C157.779 6.375 158.046 6.28255 158.246 6.09766C158.449 5.91016 158.551 5.64844 158.551 5.3125V4.9375L157.996 4.96094C157.564 4.97656 157.249 5.04948 157.051 5.17969C156.855 5.30729 156.758 5.50391 156.758 5.76953C156.758 5.96224 156.815 6.11198 156.93 6.21875C157.044 6.32292 157.216 6.375 157.445 6.375Z" fill="#792D08" fill-opacity="0.41"/>
</svg>
